<svg version="1.1" xmlns="http://www.w3.org/2000/svg" xmlns:xlink="http://www.w3.org/1999/xlink" viewBox="0 0 172 172"><g fill="none" fill-rule="nonzero" stroke="none" stroke-width="1" stroke-linecap="butt" stroke-linejoin="miter" stroke-miterlimit="10" stroke-dasharray="" stroke-dashoffset="0" font-family="none" font-weight="none" font-size="none" text-anchor="none" style="mix-blend-mode: normal"><path d="M0,172v-172h172v172z" fill="none"></path><g><path d="M143.33333,71.66667h-10.75v-32.25h10.75c2.15,0 3.58333,1.43333 3.58333,3.58333v25.08333c0,2.15 -1.43333,3.58333 -3.58333,3.58333z" fill="#e53935"></path><path d="M143.33333,96.75h-10.75v-32.25h10.75c2.15,0 3.58333,1.43333 3.58333,3.58333v25.08333c0,2.15 -1.43333,3.58333 -3.58333,3.58333z" fill="#fdd835"></path><path d="M143.33333,121.83333h-10.75v-32.25h10.75c2.15,0 3.58333,1.43333 3.58333,3.58333v25.08333c0,2.15 -1.43333,3.58333 -3.58333,3.58333z" fill="#388e3c"></path><path d="M32.25,143.33333v-114.66667c0,-3.94167 3.225,-7.16667 7.16667,-7.16667h93.16667c3.94167,0 7.16667,3.225 7.16667,7.16667v114.66667c0,3.94167 -3.225,7.16667 -7.16667,7.16667h-93.16667c-3.94167,0 -7.16667,-3.225 -7.16667,-7.16667z" fill="#2196f3"></path><path d="M43,121.83333c-3.95804,0 -7.16667,3.20863 -7.16667,7.16667c0,3.95804 3.20863,7.16667 7.16667,7.16667c3.95804,0 7.16667,-3.20863 7.16667,-7.16667c0,-3.95804 -3.20863,-7.16667 -7.16667,-7.16667zM43,93.16667c-3.95804,0 -7.16667,3.20863 -7.16667,7.16667c0,3.95804 3.20863,7.16667 7.16667,7.16667c3.95804,0 7.16667,-3.20863 7.16667,-7.16667c0,-3.95804 -3.20863,-7.16667 -7.16667,-7.16667zM43,64.5c-3.95804,0 -7.16667,3.20863 -7.16667,7.16667c0,3.95804 3.20863,7.16667 7.16667,7.16667c3.95804,0 7.16667,-3.20863 7.16667,-7.16667c0,-3.95804 -3.20863,-7.16667 -7.16667,-7.16667zM43,35.83333c-3.95804,0 -7.16667,3.20863 -7.16667,7.16667c0,3.95804 3.20863,7.16667 7.16667,7.16667c3.95804,0 7.16667,-3.20863 7.16667,-7.16667c0,-3.95804 -3.20863,-7.16667 -7.16667,-7.16667z" fill="#1565c0"></path><path d="M43,132.58333h-14.33333c-2.15,0 -3.58333,-1.43333 -3.58333,-3.58333v0c0,-2.15 1.43333,-3.58333 3.58333,-3.58333h14.33333c2.15,0 3.58333,1.43333 3.58333,3.58333v0c0,2.15 -1.43333,3.58333 -3.58333,3.58333zM43,103.91667h-14.33333c-2.15,0 -3.58333,-1.43333 -3.58333,-3.58333v0c0,-2.15 1.43333,-3.58333 3.58333,-3.58333h14.33333c2.15,0 3.58333,1.43333 3.58333,3.58333v0c0,2.15 -1.43333,3.58333 -3.58333,3.58333zM43,75.25h-14.33333c-2.15,0 -3.58333,-1.43333 -3.58333,-3.58333v0c0,-2.15 1.43333,-3.58333 3.58333,-3.58333h14.33333c2.15,0 3.58333,1.43333 3.58333,3.58333v0c0,2.15 -1.43333,3.58333 -3.58333,3.58333zM43,46.58333h-14.33333c-2.15,0 -3.58333,-1.43333 -3.58333,-3.58333v0c0,-2.15 1.43333,-3.58333 3.58333,-3.58333h14.33333c2.15,0 3.58333,1.43333 3.58333,3.58333v0c0,2.15 -1.43333,3.58333 -3.58333,3.58333z" fill="#cccccc"></path><path d="M64.5,53.75h50.16667v35.83333h-50.16667z" fill="#f5f5f5"></path><path d="M71.66667,60.91667h35.83333v7.16667h-35.83333zM71.66667,75.25h35.83333v7.16667h-35.83333z" fill="#1565c0"></path></g></g></svg>