<svg version="1.1" xmlns="http://www.w3.org/2000/svg" xmlns:xlink="http://www.w3.org/1999/xlink" viewBox="0 0 172 172"><defs><linearGradient x1="86.80983" y1="16.93483" x2="136.66117" y2="66.78617" gradientUnits="userSpaceOnUse" id="color-1"><stop offset="0" stop-color="#1d59b3"></stop><stop offset="1" stop-color="#195bbc"></stop></linearGradient><linearGradient x1="86.80983" y1="59.93483" x2="136.66117" y2="109.78617" gradientUnits="userSpaceOnUse" id="color-2"><stop offset="0" stop-color="#1d59b3"></stop><stop offset="1" stop-color="#195bbc"></stop></linearGradient><linearGradient x1="86.80983" y1="102.93483" x2="136.66117" y2="152.78617" gradientUnits="userSpaceOnUse" id="color-3"><stop offset="0" stop-color="#1d59b3"></stop><stop offset="1" stop-color="#195bbc"></stop></linearGradient><linearGradient x1="21.5" y1="129" x2="43" y2="129" gradientUnits="userSpaceOnUse" id="color-4"><stop offset="0" stop-color="#1d59b3"></stop><stop offset="1" stop-color="#195bbc"></stop></linearGradient></defs><g fill="none" fill-rule="nonzero" stroke="none" stroke-width="1" stroke-linecap="butt" stroke-linejoin="miter" stroke-miterlimit="10" stroke-dasharray="" stroke-dashoffset="0" font-family="none" font-weight="none" font-size="none" text-anchor="none" style="mix-blend-mode: normal"><path d="M0,172v-172h172v172z" fill="none"></path><g><path d="M154.08333,50.16667h-82.41667c-1.97083,0 -3.58333,-1.6125 -3.58333,-3.58333v-7.16667c0,-1.97083 1.6125,-3.58333 3.58333,-3.58333h82.41667c1.97083,0 3.58333,1.6125 3.58333,3.58333v7.16667c0,1.97083 -1.6125,3.58333 -3.58333,3.58333z" fill="url(#color-1)"></path><path d="M24.22692,56.41242l-12.556,-12.556c-1.2255,-1.2255 -1.2255,-3.21425 0,-4.43975l4.43975,-4.43975c1.2255,-1.2255 3.21425,-1.2255 4.43975,0l5.89817,5.89817l18.45775,-18.45775c1.2255,-1.2255 3.21425,-1.2255 4.43975,0l4.43975,4.43975c1.2255,1.2255 1.2255,3.21425 0,4.43975l-25.11917,25.11558c-1.2255,1.22908 -3.21425,1.22908 -4.43975,0z" fill="#42a4eb"></path><path d="M154.08333,93.16667h-82.41667c-1.97083,0 -3.58333,-1.6125 -3.58333,-3.58333v-7.16667c0,-1.97083 1.6125,-3.58333 3.58333,-3.58333h82.41667c1.97083,0 3.58333,1.6125 3.58333,3.58333v7.16667c0,1.97083 -1.6125,3.58333 -3.58333,3.58333z" fill="url(#color-2)"></path><path d="M24.22692,99.41242l-12.556,-12.556c-1.2255,-1.2255 -1.2255,-3.21425 0,-4.43975l4.43975,-4.43975c1.2255,-1.2255 3.21425,-1.2255 4.43975,0l5.89817,5.89817l18.45775,-18.45775c1.2255,-1.2255 3.21425,-1.2255 4.43975,0l4.43975,4.43975c1.2255,1.2255 1.2255,3.21425 0,4.43975l-25.11917,25.11558c-1.2255,1.22908 -3.21425,1.22908 -4.43975,0z" fill="#42a4eb"></path><path d="M154.08333,136.16667h-82.41667c-1.97083,0 -3.58333,-1.6125 -3.58333,-3.58333v-7.16667c0,-1.97083 1.6125,-3.58333 3.58333,-3.58333h82.41667c1.97083,0 3.58333,1.6125 3.58333,3.58333v7.16667c0,1.97083 -1.6125,3.58333 -3.58333,3.58333z" fill="url(#color-3)"></path><path d="M32.25,118.25c-5.93758,0 -10.75,4.81242 -10.75,10.75c0,5.93758 4.81242,10.75 10.75,10.75c5.93758,0 10.75,-4.81242 10.75,-10.75c0,-5.93758 -4.81242,-10.75 -10.75,-10.75z" fill="url(#color-4)"></path></g></g></svg>