<svg id="Layer_1" enable-background="new 0 0 511.917 511.917" height="512" viewBox="0 0 511.917 511.917" width="512" xmlns="http://www.w3.org/2000/svg"><g><path d="m309.781 13.715c-21.766 0-41.202 10.154-53.822 25.976-12.621-15.822-32.057-25.976-53.822-25.976h-202.137v340.02h202.136c21.407 0 38.822 17.416 38.822 38.822h30c0-21.407 17.416-38.822 38.822-38.822h202.136v-340.02z" fill="#fff5f5"/><path d="m309.781 13.715c-21.766 0-41.202 10.154-53.822 25.976v352.866h15c0-21.407 17.416-38.822 38.822-38.822h202.136v-340.02z" fill="#e1ebf0"/><path d="m309.781 338.736c-21.773 0-41.202 10.174-53.822 26.005-12.62-15.831-32.05-26.005-53.822-26.005h-202.137v60.002h202.136c21.407 0 38.822 17.416 38.822 38.822h30c0-21.407 17.416-38.822 38.822-38.822h202.136v-60.002z" fill="#e1ebf0"/><path d="m309.781 338.736c-21.773 0-41.202 10.174-53.822 26.005v72.819h15c0-21.407 17.416-38.822 38.822-38.822h202.136v-60.002z" fill="#b4d2d7"/><g><path d="m61.459 68.718h148.041v30h-148.041z" fill="#07485e"/></g><g><path d="m61.459 248.73h98.038v30h-98.038z" fill="#07485e"/></g><g><path d="m61.459 188.726h148.041v30h-148.041z" fill="#07485e"/></g><g><path d="m169.497 128.722h40.002v30h-40.002z" fill="#07485e"/></g><g><path d="m61.459 128.722h78.036v30h-78.036z" fill="#07485e"/></g><g><path d="m270.958 452.561h-30c0-21.407-17.416-38.822-38.822-38.822h-202.136v-30h202.136c21.766 0 41.202 10.154 53.822 25.976 12.62-15.822 32.057-25.976 53.822-25.976h202.136v30h-202.135c-21.406 0-38.823 17.415-38.823 38.822z" fill="#6e76e5"/></g><path d="m309.781 383.739c-21.766 0-41.202 10.154-53.822 25.976v42.846h15c0-21.407 17.416-38.822 38.822-38.822h202.136v-30z" fill="#0051bf"/><path d="m376.438 154.973-44.002 60.693v38.202h88.003v-38.202z" fill="#fff79f"/><path d="m420.439 215.666-44.001-60.693v.001 98.894h44.001z" fill="#ffd422"/><path d="m332.436 415.868v47.567c0 19.17 15.597 34.767 34.767 34.767h18.47c19.17 0 34.767-15.596 34.767-34.767v-47.567z" fill="#e63950"/><path d="m385.672 498.201c19.17 0 34.767-15.596 34.767-34.767v-47.567h-44.001v82.333h9.234z" fill="#cc2e43"/><path d="m332.436 215.666h88.003v230.202h-88.003z" fill="#ffd422"/><path d="m376.438 215.666h44.001v230.202h-44.001z" fill="#ff9f22"/><g><path d="m361.438 153.199h30v22.478h-30z" fill="#07485e"/></g><path d="m376.438 153.199h15v22.478h-15z" fill="#03232e"/></g></svg>