<svg height="512pt" viewBox="-12 0 512 512" width="512pt" xmlns="http://www.w3.org/2000/svg"><path d="m0 0h374.984375v512h-374.984375zm0 0" fill="#e1e4fc"/><g fill="#c5c9f7"><path d="m186.972656 0h188.011719v512h-188.011719zm0 0"/><path d="m121.492188 90.578125h167.988281v30h-167.988281zm0 0"/><path d="m84.453125 150.441406h205.027344v30h-205.027344zm0 0"/><path d="m84.453125 210.300781h205.027344v30h-205.027344zm0 0"/><path d="m84.453125 270.160156h205.027344v30h-205.027344zm0 0"/><path d="m84.453125 330.019531h205.027344v30h-205.027344zm0 0"/><path d="m84.453125 389.878906h121.378906v30h-121.378906zm0 0"/></g><path d="m186.972656 389.878906h18.859375v30h-18.859375zm0 0" fill="#98a0f0"/><path d="m186.972656 90.578125h102.507813v30h-102.507813zm0 0" fill="#98a0f0"/><path d="m186.972656 150.441406h102.507813v30h-102.507813zm0 0" fill="#98a0f0"/><path d="m186.972656 210.300781h102.507813v30h-102.507813zm0 0" fill="#98a0f0"/><path d="m186.972656 270.160156h102.507813v30h-102.507813zm0 0" fill="#98a0f0"/><path d="m186.972656 330.019531h102.507813v30h-102.507813zm0 0" fill="#98a0f0"/><path d="m473.234375 196.835938-211.515625 211.519531-52.375 11.035156c-1.5625.332031-3.125.496094-4.6875.488281-5.917969.007813-11.644531-2.324218-15.929688-6.609375l-.007812-.007812c-5.425781-5.421875-7.707031-13.125-6.132812-20.625l11.046874-52.367188 211.515626-211.519531c9.09375-9.09375 21.183593-14.101562 34.039062-14.101562 12.863281-.003907 24.953125 5 34.046875 14.09375s14.101563 21.1875 14.109375 34.046874c-.007812 12.863282-5.015625 24.953126-14.109375 34.046876zm0 0" fill="#fcbe00"/><path d="m473.234375 196.835938-211.515625 211.519531-52.375 11.035156c-1.5625.332031-3.125.496094-4.6875.488281-5.917969.007813-11.644531-2.324218-15.929688-6.609375l-.007812-.007812 284.519531-284.519531c9.089844 9.09375 14.097657 21.1875 14.105469 34.046874-.007812 12.863282-5.015625 24.953126-14.109375 34.046876zm0 0" fill="#ff9e00"/><path d="m263.152344 406.917969-1.433594 1.433593-52.375 11.039063c-1.5625.332031-3.125.496094-4.6875.488281-5.917969.007813-11.644531-2.328125-15.929688-6.609375l-.007812-.007812c-5.425781-5.425781-7.707031-13.125-6.132812-20.625l11.046874-52.371094 1.433594-1.433594zm0 0" fill="#ff90c2"/><path d="m473.234375 196.835938-44.886719 44.886718-68.085937-68.085937 44.886719-44.886719c9.09375-9.09375 21.1875-14.101562 34.039062-14.101562 12.863281-.003907 24.957031 5 34.046875 14.09375 9.09375 9.09375 14.101563 21.1875 14.109375 34.046874-.007812 12.863282-5.015625 24.953126-14.109375 34.046876zm0 0" fill="#ff90c2"/><path d="m473.234375 196.835938-44.886719 44.886718-34.046875-34.046875 78.933594-78.933593c9.09375 9.09375 14.101563 21.1875 14.109375 34.046874-.007812 12.863282-5.015625 24.953126-14.109375 34.046876zm0 0" fill="#ff52a1"/><path d="m229.105469 372.871094 34.046875 34.046875-1.433594 1.433593-52.375 11.039063c-1.5625.332031-3.125.496094-4.6875.488281-5.917969.007813-11.644531-2.328125-15.929688-6.609375l-.007812-.007812zm0 0" fill="#ff52a1"/><path d="m342.542969 191.351562 21.214843-21.214843 68.085938 68.089843-21.214844 21.210938zm0 0" fill="#00ad00"/><path d="m376.582031 225.390625 21.214844-21.210937 34.046875 34.046874-21.214844 21.210938zm0 0" fill="#008300"/></svg>