<svg height="512pt" viewBox="0 0 512 512" width="512pt" xmlns="http://www.w3.org/2000/svg"><path d="m362 0h30v30h-30l-30-16.875zm0 0" fill="#2c3b73"/><path d="m362 30-30 26.398438 30 33.601562v60h-332c-16.5 0-30-43.5-30-60v-45c0-24.902344 20.097656-45 45-45h317zm0 0" fill="#47568c"/><path d="m362 30-30 26.398438 30 33.601562v60h-150v-150h150zm0 0" fill="#2c3b73"/><path d="m362 30v60h-317c-8.402344 0-15-6.601562-15-15v-30c0-8.402344 6.597656-15 15-15zm0 0" fill="#f2f2fc"/><path d="m212 30h150v60h-150zm0 0" fill="#d8d8fc"/><path d="m512 30v60l-42.597656 30-2.402344-1.5-45-28.5v-60zm0 0" fill="#f2f2fc"/><path d="m512 30v60l-42.597656 30-2.402344-1.5v-88.5zm0 0" fill="#d8d8fc"/><path d="m512 90v60l-42.597656 30-2.402344-1.5-45-28.5v-60zm0 0" fill="#61729b"/><path d="m512 90v60l-42.597656 30-2.402344-1.5v-88.5zm0 0" fill="#47568c"/><path d="m512 150v241l-45 30-45-30v-241zm0 0" fill="#ff641a"/><path d="m467 150h45v241l-45 30zm0 0" fill="#f03800"/><path d="m512 391-45 121-45-121zm0 0" fill="#ffcebf"/><path d="m467 391h45l-45 121zm0 0" fill="#ffb99c"/><path d="m392 120v392h-332l-30-231.699219 30-160.300781h152l60 33 60-33zm0 0" fill="#fdbf00"/><path d="m392 120v392h-180v-392l60 33 60-33zm0 0" fill="#ff9100"/><path d="m30 120c-16.5 0-30-13.5-30-30v377c0 24.898438 20.097656 45 45 45h15v-392zm0 0" fill="#61729b"/><path d="m272 274.03125 60 39.992188v-194.023438h-120v194.023438zm0 0" fill="#f03800"/></svg>