<svg id="Capa_1" enable-background="new 0 0 512 512" height="512" viewBox="0 0 512 512" width="512" xmlns="http://www.w3.org/2000/svg"><path d="m436 0v407c0 8.28-6.72 15-15 15h-285l-15-218 15-204z" fill="#76e2f8"/><path d="m436 0v407c0 8.28-6.72 15-15 15h-135v-422z" fill="#4bb9ec"/><path d="m196 92v120h180v-120z" fill="#e8dde3"/><path d="m286 92h90v120h-90z" fill="#e2d0da"/><path d="m196 242h180v30h-180z" fill="#e8dde3"/><path d="m286 242h90v30h-90z" fill="#e2d0da"/><path d="m226 302h120v30h-120z" fill="#e8dde3"/><path d="m286 302h60v30h-60z" fill="#e2d0da"/><path d="m121 0c-24.81 0-45 20.19-45 45v407l15.03-1.25c.65-15.96 13.85-28.75 29.97-28.75h15v-422z" fill="#4bb9ec"/><path d="m121 407c-24.81 0-45 20.19-45 45v15c0 24.81 20.19 45 45 45h315v-105z" fill="#f2ebee"/><path d="m286 407h150v105h-150z" fill="#e8dde3"/></svg>