<svg version="1.1" xmlns="http://www.w3.org/2000/svg" xmlns:xlink="http://www.w3.org/1999/xlink" viewBox="0 0 172 172"><defs><linearGradient x1="45.60508" y1="120.85508" x2="14.99983" y2="90.24983" gradientUnits="userSpaceOnUse" id="color-1"><stop offset="0.365" stop-color="#199ae0"></stop><stop offset="0.699" stop-color="#1898de"></stop><stop offset="0.819" stop-color="#1691d8"></stop><stop offset="0.905" stop-color="#1186cc"></stop><stop offset="0.974" stop-color="#0a75bc"></stop><stop offset="1" stop-color="#076cb3"></stop></linearGradient><linearGradient x1="4.86975" y1="91.88025" x2="44.27925" y2="52.47075" gradientUnits="userSpaceOnUse" id="color-2"><stop offset="0" stop-color="#32bdef"></stop><stop offset="1" stop-color="#1ea2e4"></stop></linearGradient><linearGradient x1="126.39492" y1="120.85508" x2="157.00017" y2="90.24983" gradientUnits="userSpaceOnUse" id="color-3"><stop offset="0.365" stop-color="#199ae0"></stop><stop offset="0.699" stop-color="#1898de"></stop><stop offset="0.819" stop-color="#1691d8"></stop><stop offset="0.905" stop-color="#1186cc"></stop><stop offset="0.974" stop-color="#0a75bc"></stop><stop offset="1" stop-color="#076cb3"></stop></linearGradient><linearGradient x1="167.13025" y1="91.88025" x2="127.72075" y2="52.47075" gradientUnits="userSpaceOnUse" id="color-4"><stop offset="0" stop-color="#32bdef"></stop><stop offset="1" stop-color="#1ea2e4"></stop></linearGradient></defs><g fill="none" fill-rule="nonzero" stroke="none" stroke-width="1" stroke-linecap="butt" stroke-linejoin="miter" stroke-miterlimit="10" stroke-dasharray="" stroke-dashoffset="0" font-family="none" font-weight="none" font-size="none" text-anchor="none" style="mix-blend-mode: normal"><path d="M0,172v-172h172v172z" fill="none"></path><g><path d="M1.03917,88.51192l34.07392,34.07392c1.38675,1.38675 3.6335,1.38675 5.02025,0l7.19892,-7.19892c1.38675,-1.38675 1.38675,-3.6335 0,-5.02025l-34.07033,-34.0775c-1.38675,-1.38675 -3.6335,-1.38675 -5.02025,0l-7.2025,7.19892c-1.38675,1.38675 -1.38675,3.63708 0,5.02383z" fill="url(#color-1)"></path><path d="M13.26192,95.71083l34.07392,-34.07392c1.38675,-1.38675 1.38675,-3.6335 0,-5.02025l-7.19892,-7.19892c-1.38675,-1.38675 -3.6335,-1.38675 -5.02025,0l-34.0775,34.07033c-1.38675,1.38675 -1.38675,3.6335 0,5.02025l7.19892,7.19892c1.38675,1.39033 3.63708,1.39033 5.02383,0.00358z" fill="url(#color-2)"></path><path d="M170.96083,88.51192l-34.07392,34.07392c-1.38675,1.38675 -3.6335,1.38675 -5.02025,0l-7.19892,-7.19892c-1.38675,-1.38675 -1.38675,-3.6335 0,-5.02025l34.07392,-34.07392c1.38675,-1.38675 3.6335,-1.38675 5.02025,0l7.19892,7.19892c1.38675,1.38317 1.38675,3.6335 0,5.02025z" fill="url(#color-3)"></path><path d="M158.73808,95.71083l-34.07392,-34.07392c-1.38675,-1.38675 -1.38675,-3.6335 0,-5.02025l7.19892,-7.19892c1.38675,-1.38675 3.6335,-1.38675 5.02025,0l34.07392,34.07392c1.38675,1.38675 1.38675,3.6335 0,5.02025l-7.19892,7.19892c-1.38317,1.38675 -3.6335,1.38675 -5.02025,0z" fill="url(#color-4)"></path><path d="M108.39583,8.95833h-12.93583c-1.69492,0 -3.1605,1.18967 -3.50808,2.84875l-30.97433,147.99525c-0.35117,1.66983 0.9245,3.23933 2.63017,3.23933h12.93583c1.69492,0 3.1605,-1.18967 3.50808,-2.84875l30.97433,-147.99525c0.34758,-1.66983 -0.9245,-3.23933 -2.63017,-3.23933z" fill="#0078d4"></path></g></g></svg>