<svg version="1.1" xmlns="http://www.w3.org/2000/svg" xmlns:xlink="http://www.w3.org/1999/xlink" viewBox="0 0 172 172"><defs><radialGradient cx="179.31" cy="149.64358" r="116.6805" gradientUnits="userSpaceOnUse" id="color-1"><stop offset="0" stop-color="#bd8af5"></stop><stop offset="0.137" stop-color="#b88bf5"></stop><stop offset="0.309" stop-color="#a88ff3"></stop><stop offset="0.499" stop-color="#8f96f2"></stop><stop offset="0.702" stop-color="#6b9eef"></stop><stop offset="0.913" stop-color="#3eaaec"></stop><stop offset="1" stop-color="#29afea"></stop></radialGradient><linearGradient x1="14.33333" y1="106.12042" x2="106.26017" y2="106.12042" gradientUnits="userSpaceOnUse" id="color-2"><stop offset="0" stop-color="#124787"></stop><stop offset="0.923" stop-color="#173b75"></stop><stop offset="1" stop-color="#173a73"></stop></linearGradient></defs><g fill="none" fill-rule="nonzero" stroke="none" stroke-width="1" stroke-linecap="butt" stroke-linejoin="miter" stroke-miterlimit="10" stroke-dasharray="" stroke-dashoffset="0" font-family="none" font-weight="none" font-size="none" text-anchor="none" style="mix-blend-mode: normal"><path d="M0,172v-172h172v172z" fill="none"></path><g><path d="M147.93433,25.55992c-11.137,4.214 -31.80925,9.94017 -61.93433,9.94017c-30.12508,0 -50.79733,-5.72617 -61.93433,-9.94017c-4.7085,-1.78092 -9.73233,1.65192 -9.73233,6.6865v107.50358c0,5.03458 5.02383,8.471 9.73233,6.6865c11.137,-4.214 31.81283,-9.94017 61.93433,-9.94017c30.1215,0 50.79733,5.72617 61.93433,9.94017c4.7085,1.7845 9.73233,-1.64833 9.73233,-6.68292v-107.50717c0,-5.03458 -5.02383,-8.46742 -9.73233,-6.6865z" fill="url(#color-1)"></path><path d="M129,53.75c-3.95958,0 -7.16667,4.00975 -7.16667,8.95833c0,4.94858 3.20708,8.95833 7.16667,8.95833c3.95958,0 7.16667,-4.00975 7.16667,-8.95833c0,-4.94858 -3.20708,-8.95833 -7.16667,-8.95833z" fill="#ffffff"></path><path d="M86,136.49992c30.12508,0 50.79733,5.72617 61.93433,9.94017c0.89225,0.33683 1.79167,0.43717 2.66958,0.42283l-39.16583,-57.06817c-3.78042,-5.51117 -11.77483,-5.90175 -16.07483,-0.78475l-41.97517,49.94092c9.245,-1.45483 20.1025,-2.451 32.61192,-2.451z" fill="#436dcd"></path><path d="M106.26017,137.41367l-41.022,-67.1445c-3.79833,-6.2135 -12.65992,-6.65425 -17.05308,-0.84925l-33.85175,44.70925v25.62442c0,5.03458 5.02383,8.471 9.73233,6.6865c11.137,-4.214 31.81283,-9.94017 61.93433,-9.94017c7.31358,0 14.061,0.344 20.26017,0.91375z" fill="url(#color-2)"></path></g></g></svg>