<svg version="1.1" xmlns="http://www.w3.org/2000/svg" xmlns:xlink="http://www.w3.org/1999/xlink" viewBox="0 0 172 172"><defs><linearGradient x1="86" y1="128.7635" x2="86" y2="148.46467" gradientUnits="userSpaceOnUse" id="color-1"><stop offset="0.435" stop-color="#382010"></stop><stop offset="1" stop-color="#b0622b"></stop></linearGradient><linearGradient x1="86" y1="119.88042" x2="86" y2="138.17692" gradientUnits="userSpaceOnUse" id="color-2"><stop offset="0.441" stop-color="#999998"></stop><stop offset="0.653" stop-color="#c1c1c0"></stop><stop offset="0.88" stop-color="#e5e5e5"></stop><stop offset="1" stop-color="#f3f3f3"></stop></linearGradient><linearGradient x1="34.03808" y1="21.92283" x2="135.21708" y2="129.25442" gradientUnits="userSpaceOnUse" id="color-3"><stop offset="0" stop-color="#7dd8f3"></stop><stop offset="1" stop-color="#45b0d0"></stop></linearGradient></defs><g fill="none" fill-rule="nonzero" stroke="none" stroke-width="1" stroke-linecap="butt" stroke-linejoin="miter" stroke-miterlimit="10" stroke-dasharray="" stroke-dashoffset="0" font-family="none" font-weight="none" font-size="none" text-anchor="none" style="mix-blend-mode: normal"><path d="M0,172v-172h172v172z" fill="none"></path><g><path d="M132.58333,154.08333h-93.16667c-3.95958,0 -7.16667,-3.20708 -7.16667,-7.16667v-43h107.5v43c0,3.95958 -3.20708,7.16667 -7.16667,7.16667z" fill="url(#color-1)"></path><path d="M132.58333,143.33333h-93.16667c-3.95958,0 -7.16667,-3.20708 -7.16667,-7.16667v-39.41667h107.5v39.41667c0,3.95958 -3.20708,7.16667 -7.16667,7.16667z" fill="url(#color-2)"></path><path d="M132.58333,132.58333h-93.16667c-3.95958,0 -7.16667,-3.20708 -7.16667,-7.16667v-96.75c0,-3.95958 3.20708,-7.16667 7.16667,-7.16667h93.16667c3.95958,0 7.16667,3.20708 7.16667,7.16667v96.75c0,3.95958 -3.20708,7.16667 -7.16667,7.16667z" fill="url(#color-3)"></path><path d="M123.625,68.08333h-75.25c-0.989,0 -1.79167,-0.80267 -1.79167,-1.79167v-7.16667c0,-0.989 0.80267,-1.79167 1.79167,-1.79167h75.25c0.989,0 1.79167,0.80267 1.79167,1.79167v7.16667c0,0.989 -0.80267,1.79167 -1.79167,1.79167z" fill="#057093"></path><path d="M123.625,89.58333h-75.25c-0.989,0 -1.79167,-0.80267 -1.79167,-1.79167v-7.16667c0,-0.989 0.80267,-1.79167 1.79167,-1.79167h75.25c0.989,0 1.79167,0.80267 1.79167,1.79167v7.16667c0,0.989 -0.80267,1.79167 -1.79167,1.79167z" fill="#057093"></path><path d="M123.625,111.08333h-75.25c-0.989,0 -1.79167,-0.80267 -1.79167,-1.79167v-7.16667c0,-0.989 0.80267,-1.79167 1.79167,-1.79167h75.25c0.989,0 1.79167,0.80267 1.79167,1.79167v7.16667c0,0.989 -0.80267,1.79167 -1.79167,1.79167z" fill="#057093"></path><path d="M123.625,32.25v0c-2.967,0 -5.375,-2.408 -5.375,-5.375v-7.16667c0,-2.967 2.408,-5.375 5.375,-5.375v0c2.967,0 5.375,2.408 5.375,5.375v7.16667c0,2.967 -2.408,5.375 -5.375,5.375z" fill="#057093"></path><path d="M98.54167,32.25v0c-2.967,0 -5.375,-2.408 -5.375,-5.375v-7.16667c0,-2.967 2.408,-5.375 5.375,-5.375v0c2.967,0 5.375,2.408 5.375,5.375v7.16667c0,2.967 -2.408,5.375 -5.375,5.375z" fill="#057093"></path><path d="M73.45833,32.25v0c-2.967,0 -5.375,-2.408 -5.375,-5.375v-7.16667c0,-2.967 2.408,-5.375 5.375,-5.375v0c2.967,0 5.375,2.408 5.375,5.375v7.16667c0,2.967 -2.408,5.375 -5.375,5.375z" fill="#057093"></path><path d="M48.375,32.25v0c-2.967,0 -5.375,-2.408 -5.375,-5.375v-7.16667c0,-2.967 2.408,-5.375 5.375,-5.375v0c2.967,0 5.375,2.408 5.375,5.375v7.16667c0,2.967 -2.408,5.375 -5.375,5.375z" fill="#057093"></path></g></g></svg>