<svg version="1.1" xmlns="http://www.w3.org/2000/svg" xmlns:xlink="http://www.w3.org/1999/xlink" viewBox="0 0 172 172"><defs><linearGradient x1="125.31633" y1="86.00358" x2="136.57517" y2="86.00358" gradientUnits="userSpaceOnUse" id="color-1"><stop offset="0.441" stop-color="#999998"></stop><stop offset="0.653" stop-color="#c1c1c0"></stop><stop offset="0.88" stop-color="#e5e5e5"></stop><stop offset="1" stop-color="#f3f3f3"></stop></linearGradient><linearGradient x1="13.03617" y1="30.71633" x2="56.22608" y2="148.36792" gradientUnits="userSpaceOnUse" id="color-2"><stop offset="0" stop-color="#0176d0"></stop><stop offset="1" stop-color="#16538c"></stop></linearGradient><linearGradient x1="60.12833" y1="18.4685" x2="111.85375" y2="159.36875" gradientUnits="userSpaceOnUse" id="color-3"><stop offset="0" stop-color="#33bef0"></stop><stop offset="1" stop-color="#22a5e2"></stop></linearGradient></defs><g fill="none" fill-rule="nonzero" stroke="none" stroke-width="1" stroke-linecap="butt" stroke-linejoin="miter" stroke-miterlimit="10" stroke-dasharray="" stroke-dashoffset="0" font-family="none" font-weight="none" font-size="none" text-anchor="none" style="mix-blend-mode: normal"><path d="M0,172v-172h172v172z" fill="none"></path><g><path d="M146.91667,21.5v129c0,3.95958 -3.20708,7.16667 -7.16667,7.16667h-17.91667v-143.33333h17.91667c3.95958,0 7.16667,3.20708 7.16667,7.16667z" fill="#1783bd"></path><path d="M139.75,21.5v129c0,3.95958 -3.20708,7.16667 -7.16667,7.16667h-21.5v-143.33333h21.5c3.95958,0 7.16667,3.20708 7.16667,7.16667z" fill="url(#color-1)"></path><path d="M25.08333,21.5v129c0,3.95958 3.20708,7.16667 7.16667,7.16667h7.16667v-143.33333h-7.16667c-3.95958,0 -7.16667,3.20708 -7.16667,7.16667z" fill="url(#color-2)"></path><path d="M125.41667,14.33333h-86v143.33333h86c3.95958,0 7.16667,-3.20708 7.16667,-7.16667v-129c0,-3.95958 -3.20708,-7.16667 -7.16667,-7.16667z" fill="url(#color-3)"></path><rect x="16" y="14" transform="scale(3.58333,3.58333)" width="16" height="2" fill="#1b9de2"></rect></g></g></svg>