<?xml version="1.0" encoding="iso-8859-1"?>
<!-- Generator: Adobe Illustrator 19.0.0, SVG Export Plug-In . SVG Version: 6.00 Build 0)  -->
<svg version="1.1" id="Capa_1" xmlns="http://www.w3.org/2000/svg" xmlns:xlink="http://www.w3.org/1999/xlink" x="0px" y="0px"
	 viewBox="0 0 512 512" style="enable-background:new 0 0 512 512;" xml:space="preserve">
<path style="fill:#00AAF0;" d="M0,377.251v94.75h17.483l31.718-16.252c46.963-24.063,103.694-18.021,144.534,15.396l25.493,20.856
	h73.543l25.494-20.857c40.838-33.414,97.57-39.458,144.532-15.395l31.719,16.252H512v-94.75H0z"/>
<path style="fill:#0096DC;" d="M256,377.251v114.75h36.771l25.494-20.857c40.838-33.414,97.57-39.458,144.532-15.395l31.719,16.252
	H512v-94.75L256,377.251L256,377.251z"/>
<path style="fill:#DCF4FF;" d="M271.354,432.001h-30.709l-8.917-7.295c-59.308-48.524-141.694-57.298-209.889-22.355L0,413.542
	V49.774l8.16-4.181c38.828-19.896,82.327-28.457,125.804-24.751c43.472,3.704,84.899,19.499,119.804,45.676L256,68.192l2.232-1.674
	c34.904-26.178,76.332-41.973,119.804-45.676c43.473-3.704,86.975,4.855,125.804,24.751l8.16,4.181v363.768l-21.84-11.191
	c-68.197-34.944-150.583-26.169-209.888,22.354L271.354,432.001z"/>
<path style="fill:#00C3FF;" d="M476.479,429.049c-57.581-29.504-127.14-22.093-177.21,18.875L282.063,462h-52.125l-17.205-14.075
	C162.66,406.956,93.1,399.546,35.521,429.049L0,447.251v24.75h17.483l31.718-16.252c46.963-24.063,103.694-18.021,144.534,15.396
	l25.493,20.856h73.543l25.494-20.857c40.838-33.414,97.57-39.458,144.532-15.395l31.719,16.252H512v-24.75L476.479,429.049z"/>
<path style="fill:#CCEFFF;" d="M503.84,45.593c-38.829-19.896-82.331-28.455-125.804-24.751
	c-43.472,3.704-84.899,19.499-119.804,45.676L256,68.192v363.809h15.354l8.918-7.296c59.305-48.524,141.69-57.298,209.888-22.354
	L512,413.542V49.774L503.84,45.593z"/>
<path style="fill:#00AAF0;" d="M476.479,429.049c-57.581-29.504-127.14-22.093-177.21,18.875L282.063,462H256v30h36.771
	l25.494-20.857c40.838-33.414,97.57-39.458,144.532-15.395L494.516,472H512v-24.75L476.479,429.049z"/>
<g>
</g>
<g>
</g>
<g>
</g>
<g>
</g>
<g>
</g>
<g>
</g>
<g>
</g>
<g>
</g>
<g>
</g>
<g>
</g>
<g>
</g>
<g>
</g>
<g>
</g>
<g>
</g>
<g>
</g>
</svg>
