<svg version="1.1" xmlns="http://www.w3.org/2000/svg" xmlns:xlink="http://www.w3.org/1999/xlink" viewBox="0 0 172 172"><g fill="none" fill-rule="nonzero" stroke="none" stroke-width="1" stroke-linecap="butt" stroke-linejoin="miter" stroke-miterlimit="10" stroke-dasharray="" stroke-dashoffset="0" font-family="none" font-weight="none" font-size="none" text-anchor="none" style="mix-blend-mode: normal"><path d="M0,172v-172h172v172z" fill="none"></path><g><path d="M139.75,25.08333v121.83333c0,3.95958 -3.20708,7.16667 -7.16667,7.16667h-93.16667c-3.95958,0 -7.16667,-3.20708 -7.16667,-7.16667v-121.83333c0,-3.95958 3.20708,-7.16667 7.16667,-7.16667h93.16667c3.95958,0 7.16667,3.20708 7.16667,7.16667z" fill="#50e6ff"></path><path d="M118.25,60.91667h-50.16667c-1.978,0 -3.58333,1.60533 -3.58333,3.58333v0c0,1.978 1.60533,3.58333 3.58333,3.58333h50.16667c1.978,0 3.58333,-1.60533 3.58333,-3.58333v0c0,-1.978 -1.60533,-3.58333 -3.58333,-3.58333z" fill="#057093"></path><path d="M118.25,39.41667h-50.16667c-1.978,0 -3.58333,1.60533 -3.58333,3.58333v0c0,1.978 1.60533,3.58333 3.58333,3.58333h50.16667c1.978,0 3.58333,-1.60533 3.58333,-3.58333v0c0,-1.978 -1.60533,-3.58333 -3.58333,-3.58333z" fill="#057093"></path><circle cx="15" cy="12" transform="scale(3.58333,3.58333)" r="1" fill="#057093"></circle><circle cx="15" cy="18" transform="scale(3.58333,3.58333)" r="1" fill="#057093"></circle><path d="M118.25,82.41667h-50.16667c-1.978,0 -3.58333,1.60533 -3.58333,3.58333v0c0,1.978 1.60533,3.58333 3.58333,3.58333h50.16667c1.978,0 3.58333,-1.60533 3.58333,-3.58333v0c0,-1.978 -1.60533,-3.58333 -3.58333,-3.58333z" fill="#057093"></path><circle cx="15" cy="24" transform="scale(3.58333,3.58333)" r="1" fill="#057093"></circle><path d="M118.25,103.91667h-50.16667c-1.978,0 -3.58333,1.60533 -3.58333,3.58333v0c0,1.978 1.60533,3.58333 3.58333,3.58333h50.16667c1.978,0 3.58333,-1.60533 3.58333,-3.58333v0c0,-1.978 -1.60533,-3.58333 -3.58333,-3.58333z" fill="#057093"></path><circle cx="15" cy="30" transform="scale(3.58333,3.58333)" r="1" fill="#057093"></circle><path d="M118.25,125.41667h-50.16667c-1.978,0 -3.58333,1.60533 -3.58333,3.58333v0c0,1.978 1.60533,3.58333 3.58333,3.58333h50.16667c1.978,0 3.58333,-1.60533 3.58333,-3.58333v0c0,-1.978 -1.60533,-3.58333 -3.58333,-3.58333z" fill="#057093"></path><circle cx="15" cy="36" transform="scale(3.58333,3.58333)" r="1" fill="#057093"></circle><path d="M101.20408,21.5l-15.20408,15.20408l-15.20408,-15.20408l12.67067,-12.67067c1.40108,-1.40108 3.66933,-1.40108 5.06683,0z" fill="#50e6ff"></path></g></g></svg>