<svg version="1.1" xmlns="http://www.w3.org/2000/svg" xmlns:xlink="http://www.w3.org/1999/xlink" viewBox="0 0 172 172"><defs><radialGradient cx="86" cy="86" r="86" gradientUnits="userSpaceOnUse" id="color-1"><stop offset="0" stop-color="#afeeff"></stop><stop offset="0.193" stop-color="#bbf1ff"></stop><stop offset="0.703" stop-color="#666666"></stop><stop offset="1" stop-color="#333333"></stop></radialGradient><linearGradient x1="142.4375" y1="69.875" x2="142.4375" y2="34.9375" gradientUnits="userSpaceOnUse" id="color-2"><stop offset="0" stop-color="#ff634d"></stop><stop offset="0.204" stop-color="#fe6464"></stop><stop offset="0.521" stop-color="#fc6581"></stop><stop offset="0.794" stop-color="#fa6694"></stop><stop offset="0.989" stop-color="#fa669a"></stop><stop offset="1" stop-color="#fa669a"></stop></linearGradient><linearGradient x1="142.4375" y1="96.75" x2="142.4375" y2="61.8125" gradientUnits="userSpaceOnUse" id="color-3"><stop offset="0" stop-color="#feaa53"></stop><stop offset="0.612" stop-color="#ffcd49"></stop><stop offset="1" stop-color="#ffde44"></stop></linearGradient><linearGradient x1="142.4375" y1="88.6875" x2="142.4375" y2="123.625" gradientUnits="userSpaceOnUse" id="color-4"><stop offset="0" stop-color="#42d778"></stop><stop offset="0.428" stop-color="#3dca76"></stop><stop offset="1" stop-color="#34b171"></stop></linearGradient><linearGradient x1="86" y1="180.18881" x2="86" y2="43.12631" gradientUnits="userSpaceOnUse" id="color-5"><stop offset="0" stop-color="#155cde"></stop><stop offset="0.278" stop-color="#1f7fe5"></stop><stop offset="0.569" stop-color="#279ceb"></stop><stop offset="0.82" stop-color="#2cafef"></stop><stop offset="1" stop-color="#2eb5f0"></stop></linearGradient><linearGradient x1="92.71875" y1="61.8125" x2="92.71875" y2="80.625" gradientUnits="userSpaceOnUse" id="color-6"><stop offset="0" stop-color="#d8d8d8"></stop><stop offset="0.759" stop-color="#c9c9c9"></stop><stop offset="1" stop-color="#c3c3c3"></stop></linearGradient><linearGradient x1="114.21875" y1="159.88475" x2="114.21875" y2="49.00925" gradientUnits="userSpaceOnUse" id="color-7"><stop offset="0" stop-color="#155cde"></stop><stop offset="0.278" stop-color="#1f7fe5"></stop><stop offset="0.569" stop-color="#279ceb"></stop><stop offset="0.82" stop-color="#2cafef"></stop><stop offset="1" stop-color="#2eb5f0"></stop></linearGradient><linearGradient x1="18.8125" y1="127.65625" x2="48.375" y2="127.65625" gradientUnits="userSpaceOnUse" id="color-8"><stop offset="0" stop-color="#a4a4a4"></stop><stop offset="0.63" stop-color="#7f7f7f"></stop><stop offset="1" stop-color="#6f6f6f"></stop><stop offset="1" stop-color="#6f6f6f"></stop></linearGradient><linearGradient x1="18.8125" y1="87.34375" x2="48.375" y2="87.34375" gradientUnits="userSpaceOnUse" id="color-9"><stop offset="0" stop-color="#a4a4a4"></stop><stop offset="0.63" stop-color="#7f7f7f"></stop><stop offset="1" stop-color="#6f6f6f"></stop><stop offset="1" stop-color="#6f6f6f"></stop></linearGradient><linearGradient x1="18.8125" y1="47.03125" x2="48.375" y2="47.03125" gradientUnits="userSpaceOnUse" id="color-10"><stop offset="0" stop-color="#a4a4a4"></stop><stop offset="0.63" stop-color="#7f7f7f"></stop><stop offset="1" stop-color="#6f6f6f"></stop><stop offset="1" stop-color="#6f6f6f"></stop></linearGradient></defs><g fill="none" fill-rule="nonzero" stroke="none" stroke-width="1" stroke-linecap="butt" stroke-linejoin="miter" stroke-miterlimit="10" stroke-dasharray="" stroke-dashoffset="0" font-family="none" font-weight="none" font-size="none" text-anchor="none" style="mix-blend-mode: normal"><path d="M0,172v-172h172v172z" fill="none"></path><g><path d="M172,161.25c0,5.93669 -4.81331,10.75 -10.75,10.75c-5.93669,0 -10.75,-4.81331 -10.75,-10.75c0,-5.93669 4.81331,-10.75 10.75,-10.75c5.93669,0 10.75,4.81331 10.75,10.75zM157.21875,18.8125c5.19494,0 9.40625,-4.21131 9.40625,-9.40625c0,-5.19494 -4.21131,-9.40625 -9.40625,-9.40625c-5.19494,0 -9.40625,4.21131 -9.40625,9.40625c0,5.19494 4.21131,9.40625 9.40625,9.40625zM129,150.5h-16.125c-4.45319,0 -8.0625,-3.60931 -8.0625,-8.0625c0,-4.45319 3.60931,-8.0625 8.0625,-8.0625h37.625c4.45319,0 8.0625,-3.60931 8.0625,-8.0625v-2.6875c0,-4.45319 -3.60931,-8.0625 -8.0625,-8.0625h-8.0625c-4.45319,0 -8.0625,-3.60931 -8.0625,-8.0625c0,-4.45319 3.60931,-8.0625 8.0625,-8.0625h13.4375c7.42019,0 13.4375,-6.01731 13.4375,-13.4375c0,-7.42019 -6.01731,-13.4375 -13.4375,-13.4375h-14.78125c-5.19494,0 -9.40625,-4.21131 -9.40625,-9.40625c0,-5.19494 4.21131,-9.40625 9.40625,-9.40625h12.09375c5.93669,0 10.75,-4.81331 10.75,-10.75c0,-5.93669 -4.81331,-10.75 -10.75,-10.75h-22.84375c-3.71144,0 -6.71875,-3.00731 -6.71875,-6.71875c0,-3.71144 3.00731,-6.71875 6.71875,-6.71875c5.19494,0 9.40625,-4.21131 9.40625,-9.40625c0,-5.19494 -4.21131,-9.40625 -9.40625,-9.40625h-80.625c-5.19494,0 -9.40625,4.21131 -9.40625,9.40625c0,5.19494 4.21131,9.40625 9.40625,9.40625h1.34375c2.96969,0 5.375,2.40531 5.375,5.375c0,2.96969 -2.40531,5.375 -5.375,5.375l-0.43806,2.33006c-6.364,0.21769 -10.80913,0.35744 -11.65569,0.35744h-22.84375c-5.93669,0 -10.75,4.81331 -10.75,10.75v0.05375c0,5.92862 4.82138,10.72581 10.75,10.69625c5.18688,-0.02688 9.40625,4.171 9.40625,9.35788v0.04838c0,5.19494 -4.21131,9.40625 -9.40625,9.40625h-2.6875c-7.42019,0 -13.4375,6.01731 -13.4375,13.4375c0,7.42019 6.01731,13.4375 13.4375,13.4375h2.6875c4.45319,0 8.0625,3.60931 8.0625,8.0625c0,4.45319 -3.60931,8.0625 -8.0625,8.0625h-6.71875c-5.19494,0 -9.40625,4.21131 -9.40625,9.40625c0,5.19494 4.21131,9.40625 9.40625,9.40625h47.03125c1.24969,0 5.57387,-0.42462 11.27137,-1.03469c1.34375,1.79525 2.16613,3.99631 2.16613,6.40969c0,5.93669 -4.81331,10.75 -10.75,10.75h-5.375c-5.93669,0 -10.75,4.81331 -10.75,10.75c0,5.93669 4.81331,10.75 10.75,10.75h75.25c5.93669,0 10.75,-4.81331 10.75,-10.75c0,-5.93669 -4.81331,-10.75 -10.75,-10.75z" fill="url(#color-1)"></path><path d="M142.4375,69.875v0c4.43437,0 8.0625,-3.62812 8.0625,-8.0625v-18.8125c0,-4.43438 -3.62813,-8.0625 -8.0625,-8.0625v0c-4.43437,0 -8.0625,3.62812 -8.0625,8.0625v18.8125c0,4.43438 3.62813,8.0625 8.0625,8.0625z" fill="url(#color-2)"></path><path d="M142.4375,96.75v0c4.43437,0 8.0625,-3.62812 8.0625,-8.0625v-18.8125c0,-4.43438 -3.62813,-8.0625 -8.0625,-8.0625v0c-4.43437,0 -8.0625,3.62812 -8.0625,8.0625v18.8125c0,4.43438 3.62813,8.0625 8.0625,8.0625z" fill="url(#color-3)"></path><path d="M142.4375,123.625v0c4.43437,0 8.0625,-3.62812 8.0625,-8.0625v-18.8125c0,-4.43438 -3.62813,-8.0625 -8.0625,-8.0625v0c-4.43437,0 -8.0625,3.62812 -8.0625,8.0625v18.8125c0,4.43438 3.62813,8.0625 8.0625,8.0625z" fill="url(#color-4)"></path><path d="M29.5625,26.875v120.9375c0,4.45319 3.60931,8.0625 8.0625,8.0625h96.75c4.45319,0 8.0625,-3.60931 8.0625,-8.0625v-120.9375c0,-4.45319 -3.60931,-8.0625 -8.0625,-8.0625h-96.75c-4.45319,0 -8.0625,3.60931 -8.0625,8.0625z" fill="url(#color-5)"></path><path d="M115.5625,91.375h-45.6875c-2.96969,0 -5.375,-2.40531 -5.375,-5.375v-29.5625c0,-2.96969 2.40531,-5.375 5.375,-5.375h45.6875c2.96969,0 5.375,2.40531 5.375,5.375v29.5625c0,2.96969 -2.40531,5.375 -5.375,5.375z" fill="#ffffff"></path><path d="M77.9375,61.8125h29.5625c1.4835,0 2.6875,1.204 2.6875,2.6875v0c0,1.4835 -1.204,2.6875 -2.6875,2.6875h-29.5625c-1.4835,0 -2.6875,-1.204 -2.6875,-2.6875v0c0,-1.4835 1.204,-2.6875 2.6875,-2.6875zM77.9375,75.25h29.5625c1.4835,0 2.6875,1.204 2.6875,2.6875v0c0,1.4835 -1.204,2.6875 -2.6875,2.6875h-29.5625c-1.4835,0 -2.6875,-1.204 -2.6875,-2.6875v0c0,-1.4835 1.204,-2.6875 2.6875,-2.6875z" fill="url(#color-6)"></path><path d="M116.90625,115.5625h25.53125v32.25c0,4.45319 -3.60931,8.0625 -8.0625,8.0625h-41.65625c-3.71144,0 -6.71875,-3.00731 -6.71875,-6.71875v0c0,-3.71144 3.00731,-6.71875 6.71875,-6.71875h29.5625c3.71144,0 6.71875,-3.00731 6.71875,-6.71875v0c0,-3.71144 -3.00731,-6.71875 -6.71875,-6.71875h-5.375c-3.71144,0 -6.71875,-3.00731 -6.71875,-6.71875v0c0,-3.71144 3.00731,-6.71875 6.71875,-6.71875zM98.09375,129c3.71144,0 6.71875,-3.00731 6.71875,-6.71875c0,-3.71144 -3.00731,-6.71875 -6.71875,-6.71875c-3.71144,0 -6.71875,3.00731 -6.71875,6.71875c0,3.71144 3.00731,6.71875 6.71875,6.71875z" fill="url(#color-7)"></path><path d="M56.4375,127.65625c0,8.17 -6.61125,14.78125 -14.78125,14.78125c-4.99875,0 -9.40625,-2.49937 -12.09375,-6.28875v-16.985c2.6875,-3.78937 7.095,-6.28875 12.09375,-6.28875c8.17,0 14.78125,6.61125 14.78125,14.78125z" fill="#196ae1"></path><path d="M56.4375,87.34375c0,8.17 -6.61125,14.78125 -14.78125,14.78125c-4.99875,0 -9.40625,-2.49938 -12.09375,-6.28875v-16.985c2.6875,-3.78938 7.095,-6.28875 12.09375,-6.28875c8.17,0 14.78125,6.61125 14.78125,14.78125z" fill="#1e7de5"></path><path d="M56.4375,47.03125c0,8.17 -6.61125,14.78125 -14.78125,14.78125c-4.99875,0 -9.40625,-2.49938 -12.09375,-6.28875v-16.985c2.6875,-3.78937 7.095,-6.28875 12.09375,-6.28875c8.17,0 14.78125,6.61125 14.78125,14.78125z" fill="#238fe8"></path><path d="M48.375,127.65625v0c0,3.69531 -3.02344,6.71875 -6.71875,6.71875h-16.125c-3.69531,0 -6.71875,-3.02344 -6.71875,-6.71875v0c0,-3.69531 3.02344,-6.71875 6.71875,-6.71875h16.125c3.69531,0 6.71875,3.02344 6.71875,6.71875z" fill="url(#color-8)"></path><path d="M48.375,87.34375v0c0,3.69531 -3.02344,6.71875 -6.71875,6.71875h-16.125c-3.69531,0 -6.71875,-3.02344 -6.71875,-6.71875v0c0,-3.69531 3.02344,-6.71875 6.71875,-6.71875h16.125c3.69531,0 6.71875,3.02344 6.71875,6.71875z" fill="url(#color-9)"></path><path d="M48.375,47.03125v0c0,3.69531 -3.02344,6.71875 -6.71875,6.71875h-16.125c-3.69531,0 -6.71875,-3.02344 -6.71875,-6.71875v0c0,-3.69531 3.02344,-6.71875 6.71875,-6.71875h16.125c3.69531,0 6.71875,3.02344 6.71875,6.71875z" fill="url(#color-10)"></path></g></g></svg>